<?xml version="1.0" encoding="UTF-8" standalone="no"?>
<svg
   width="16"
   height="16"
   fill="currentColor"
   class="bi bi-volume-up"
   viewBox="0 0 16 16"
   version="1.1"
   id="svg8"
   sodipodi:docname="volume-up.svg"
   inkscape:version="1.1.2 (0a00cf5339, 2022-02-04)"
   xmlns:inkscape="http://www.inkscape.org/namespaces/inkscape"
   xmlns:sodipodi="http://sodipodi.sourceforge.net/DTD/sodipodi-0.dtd"
   xmlns="http://www.w3.org/2000/svg"
   xmlns:svg="http://www.w3.org/2000/svg">
  <defs
     id="defs12" />
  <sodipodi:namedview
     id="namedview10"
     pagecolor="#ffffff"
     bordercolor="#666666"
     borderopacity="1.0"
     inkscape:pageshadow="2"
     inkscape:pageopacity="0.0"
     inkscape:pagecheckerboard="0"
     showgrid="false"
     inkscape:zoom="12.296875"
     inkscape:cx="40.620076"
     inkscape:cy="6.4243964"
     inkscape:window-width="1920"
     inkscape:window-height="959"
     inkscape:window-x="0"
     inkscape:window-y="32"
     inkscape:window-maximized="1"
     inkscape:current-layer="svg8" />
  <path
     d="M11.536 14.01A8.473 8.473 0 0 0 14.026 8a8.473 8.473 0 0 0-2.49-6.01l-.708.707A7.476 7.476 0 0 1 13.025 8c0 2.071-.84 3.946-2.197 5.303l.708.707z"
     id="path2"
     style="fill:#ffffff" />
  <path
     d="M10.121 12.596A6.48 6.48 0 0 0 12.025 8a6.48 6.48 0 0 0-1.904-4.596l-.707.707A5.483 5.483 0 0 1 11.025 8a5.483 5.483 0 0 1-1.61 3.89l.706.706z"
     id="path4"
     style="fill:#ffffff" />
  <path
     d="m 10.025,8 c 0.0016,1.1937847 -0.4727804,2.338953 -1.318,3.182 L 8,10.475 C 8.65739,9.8192584 9.0262799,8.9285241 9.025,8 9.025,7.034 8.633,6.159 8,5.525 L 8.707,4.818 C 9.5522196,5.6610469 10.026554,6.8062153 10.025,8 Z M 7,4 C 6.9994039,3.5812849 6.5151942,3.3487211 6.188,3.61 L 3.825,5.5 H 1.5 C 1.2238576,5.5 1,5.7238576 1,6 v 4 c 0,0.276142 0.2238576,0.5 0.5,0.5 h 2.325 l 2.363,1.89 C 6.5151942,12.651279 6.9994039,12.418715 7,12 Z M 4.312,6.39 6,5.04 v 5.92 L 4.312,9.61 C 4.2234944,9.5389932 4.1134688,9.5002021 4,9.5 l 2,1.46 V 5.04 L 4,6.5 C 4.1134688,6.4997979 4.2234944,6.4610068 4.312,6.39 Z"
     id="path6"
     sodipodi:nodetypes="ccccccccccssssccccccccccccc"
     style="fill:#ffffff" />
  <path
     style="fill:#ffffff;fill-opacity:0"
     id="path6617"
     d="M 3.8078265,7.4740712 C 3.6600621,7.5828827 3.5747641,7.7574627 3.4815637,7.9115813 3.3991585,8.0508915 3.3278271,8.1963317 3.2552168,8.340873 c 0,0 0.2666989,-0.1207567 0.2666989,-0.1207567 v 0 C 3.5924111,8.0763384 3.6625531,7.932065 3.7454583,7.7948847 3.8421856,7.6384289 3.9321752,7.4663417 4.0906203,7.363422 c 0,0 -0.2827938,0.1106492 -0.2827938,0.1106492 z" />
  <path
     style="fill:#ffffff;fill-opacity:0;stroke-width:0.0203304"
     d="M 5.0992486,10.225987 C 4.5028025,9.7472197 4.2180572,9.5310668 4.1640516,9.5160703 4.1140046,9.5021731 3.716041,9.4944685 3.0444727,9.4943955 L 2.0025413,9.4942821 V 8 6.5057179 H 3.042114 c 0.7608502,0 1.0620084,-0.00667 1.1232528,-0.024888 0.05958,-0.01772 0.3310563,-0.2226532 0.9426141,-0.7115629 0.4724135,-0.377671 0.863519,-0.6866745 0.8691232,-0.6866745 0.0056,0 0.010189,1.3128336 0.010189,2.9174079 0,1.6045743 -0.00686,2.9167176 -0.015248,2.9158746 -0.00839,-8.41e-4 -0.401145,-0.311292 -0.8727965,-0.689888 z"
     id="path6825" />
  <path
     style="fill:#ffffff;fill-opacity:0;stroke-width:0.0203304"
     d="M 5.0992486,10.225987 C 4.5028025,9.7472197 4.2180572,9.5310668 4.1640516,9.5160703 4.1140046,9.5021731 3.716041,9.4944685 3.0444727,9.4943955 L 2.0025413,9.4942821 V 8 6.5057179 H 3.042114 c 0.7608502,0 1.0620084,-0.00667 1.1232528,-0.024888 0.05958,-0.01772 0.3310563,-0.2226532 0.9426141,-0.7115629 0.4724135,-0.377671 0.863519,-0.6866745 0.8691232,-0.6866745 0.0056,0 0.010189,1.3128336 0.010189,2.9174079 0,1.6045743 -0.00686,2.9167176 -0.015248,2.9158746 -0.00839,-8.41e-4 -0.401145,-0.311292 -0.8727965,-0.689888 z"
     id="path6864" />
  <rect
     style="fill:#ffffff;fill-opacity:0"
     id="rect7229"
     width="4.0673242"
     height="2.9772487"
     x="2.0025413"
     y="6.5057178" />
</svg>
