<?xml version="1.0" encoding="utf-8"?>
<!-- Generator: Adobe Illustrator 27.2.0, SVG Export Plug-In . SVG Version: 6.00 Build 0)  -->
<svg version="1.1" id="Ebene_1" xmlns="http://www.w3.org/2000/svg" xmlns:xlink="http://www.w3.org/1999/xlink" x="0px" y="0px"
	 viewBox="0 0 16 16" style="enable-background:new 0 0 16 16;" xml:space="preserve">
<style type="text/css">
	.st0{fill:#FFFFFF;}
</style>
<path class="st0" d="M9,4c0-0.3-0.2-0.5-0.5-0.5c-0.1,0-0.2,0-0.3,0.1L5.8,5.5H3.5C3.2,5.5,3,5.7,3,6v4c0,0.3,0.2,0.5,0.5,0.5h2.3
	l2.4,1.9c0.2,0.2,0.5,0.1,0.7-0.1C9,12.2,9,12.1,9,12V4z M12,8c0,1.2-0.5,2.3-1.3,3.2L10,10.5c0.7-0.7,1-1.5,1-2.5
	c0-0.9-0.4-1.8-1-2.5l0.7-0.7C11.6,5.7,12,6.8,12,8z"/>
</svg>
